<?xml version="1.0" encoding="iso-8859-1"?>
<!-- Generator: Adobe Illustrator 16.0.0, SVG Export Plug-In . SVG Version: 6.00 Build 0)  -->
<!DOCTYPE svg PUBLIC "-//W3C//DTD SVG 1.1//EN" "http://www.w3.org/Graphics/SVG/1.1/DTD/svg11.dtd">
<svg version="1.1" id="Layer_1" xmlns="http://www.w3.org/2000/svg" xmlns:xlink="http://www.w3.org/1999/xlink" x="0px" y="0px"
	 width="1020.152px" height="850.289px" viewBox="0 0 1020.152 850.289" style="enable-background:new 0 0 1020.152 850.289;"
	 xml:space="preserve">
<rect x="0.5" style="fill:#231F20;" width="1019.652" height="850.289"/>
<g>
	<path style="fill:#F7971F;" d="M434.779,508.932"/>
</g>
<path style="fill:#FFFFFF;" d="M560.022,349.746v-14.519c0.016-2.21,1.682-3.688,3.697-3.688h65.109c2.097,0,3.76,1.52,3.76,3.675
	v12.474c-0.025,2.059-1.786,4.798-4.904,9.134l-33.754,48.153c12.526-0.293,25.779,1.578,37.161,7.98
	c2.564,1.448,3.261,3.559,3.456,5.658v15.527c0,2.146-2.344,4.625-4.783,3.334c-20.062-10.524-46.659-11.668-68.817,0.126
	c-2.27,1.213-4.632-1.216-4.632-3.362v-14.771c0-2.354,0.038-6.391,2.418-9.983l39.071-56.066h-34.013
	C561.713,353.417,560.046,351.935,560.022,349.746z"/>
<path style="fill:#FFFFFF;" d="M322.506,440.531h-19.812c-1.885-0.115-3.404-1.533-3.544-3.344l0.018-101.712
	c0-2.028,1.697-3.663,3.818-3.663l18.448-0.007c1.933,0.106,3.478,1.566,3.605,3.422v13.284h0.363
	c4.797-12.844,13.871-18.847,26.064-18.847c12.399,0,20.144,6.003,25.707,18.847c4.812-12.844,15.712-18.847,27.374-18.847
	c8.326,0,17.378,3.431,22.934,11.137c6.295,8.538,4.994,20.972,4.994,31.864l-0.008,64.199c0,2.04-1.727,3.666-3.829,3.666h-19.781
	c-1.997-0.115-3.557-1.696-3.557-3.645l-0.008-53.936c0-4.276,0.362-14.965-0.564-19.05c-1.49-6.845-5.925-8.771-11.657-8.771
	c-4.787,0-9.791,3.212-11.832,8.35c-2.024,5.141-1.848,13.683-1.848,19.471v53.913c0,2.04-1.712,3.666-3.822,3.666h-19.785
	c-1.992-0.115-3.562-1.696-3.562-3.645l-0.025-53.936c0-11.351,1.859-28.034-12.189-28.034c-14.252,0-13.693,16.281-13.693,28.034
	l-0.008,53.913C326.305,438.905,324.627,440.531,322.506,440.531z"/>
<path style="fill:#FFFFFF;" d="M688.66,329.665c29.376,0,45.312,25.253,45.312,57.354c0,31.015-17.602,55.659-45.312,55.659
	c-28.859,0-44.59-25.299-44.59-56.742C644.07,354.281,659.979,329.665,688.66,329.665z M688.848,350.415
	c-14.629,0-15.557,19.927-15.557,32.301c0,12.419-0.186,38.946,15.368,38.946c15.316,0,16.044-21.393,16.044-34.414
	c0-8.572-0.36-18.84-2.957-26.979C699.534,353.195,695.094,350.415,688.848,350.415z"/>
<path style="fill:#FFFFFF;" d="M772.086,440.531h-19.753c-1.996-0.115-3.555-1.696-3.555-3.645l-0.042-101.749
	c0.174-1.866,1.814-3.326,3.814-3.326l18.396-0.007c1.74,0.092,3.163,1.275,3.522,2.857v15.546h0.373
	c5.545-13.898,13.28-20.544,26.967-20.544c8.889,0,17.598,3.216,23.145,12.001c5.148,8.106,5.148,21.815,5.148,31.654v64
	c-0.229,1.822-1.854,3.212-3.758,3.212h-19.892c-1.807-0.107-3.307-1.476-3.535-3.212v-55.221c0-11.11,1.314-27.399-12.396-27.399
	c-4.816,0-9.207,3.22-11.439,8.146c-2.769,6.21-3.132,12.397-3.132,19.254v54.767C775.899,438.905,774.195,440.531,772.086,440.531z
	"/>
<path style="fill:#FFFFFF;" d="M283.681,421.869c-3.604-5.019-7.459-9.07-7.459-18.356V372.64c0-13.062,0.935-25.067-8.716-34.075
	c-7.607-7.303-20.204-9.876-29.851-9.876c-18.855,0-39.881,7.037-44.298,30.334c-0.47,2.492,1.334,3.785,2.96,4.151l19.202,2.081
	c1.785-0.092,3.096-1.871,3.44-3.652c1.652-8.035,8.375-11.904,15.931-11.904c4.062,0,8.696,1.51,11.117,5.155
	c2.779,4.065,2.406,9.655,2.406,14.374v2.551c-11.498,1.293-26.513,2.147-37.246,6.871c-12.419,5.374-21.12,16.293-21.12,32.394
	c0,20.604,12.964,30.899,29.63,30.899c14.115,0,21.792-3.33,32.678-14.411c3.6,5.208,4.775,7.721,11.351,13.214
	c1.479,0.783,3.367,0.721,4.684-0.467l0.044,0.048c3.959-3.529,11.16-9.779,15.185-13.166
	C285.226,425.827,284.942,423.665,283.681,421.869z M244.701,412.968c-3.156,5.549-8.148,8.986-13.705,8.986
	c-7.604,0-12.05-5.795-12.05-14.352c0-16.866,15.144-19.926,29.47-19.926v4.28C248.416,399.655,248.597,406.098,244.701,412.968z"/>
<path style="fill:#FFFFFF;" d="M543.393,421.869c-3.632-5.019-7.48-9.07-7.48-18.356V372.64c0-13.062,0.928-25.067-8.724-34.075
	c-7.573-7.303-20.188-9.876-29.816-9.876c-18.851,0-39.889,7.037-44.302,30.334c-0.47,2.492,1.334,3.785,2.957,4.151l19.19,2.081
	c1.813-0.092,3.114-1.871,3.452-3.652c1.662-8.035,8.356-11.904,15.923-11.904c4.072,0,8.716,1.51,11.113,5.155
	c2.772,4.065,2.402,9.655,2.402,14.374v2.551c-11.483,1.293-26.49,2.147-37.23,6.871c-12.419,5.374-21.132,16.293-21.132,32.394
	c0,20.604,12.956,30.899,29.645,30.899c14.078,0,21.796-3.33,32.67-14.411c3.592,5.208,4.776,7.721,11.351,13.214
	c1.49,0.783,3.359,0.721,4.669-0.467l0.043,0.048c3.968-3.529,11.167-9.779,15.213-13.166
	C544.949,425.827,544.673,423.665,543.393,421.869z M504.399,412.968c-3.131,5.549-8.143,8.986-13.705,8.986
	c-7.604,0-12.031-5.795-12.031-14.352c0-16.866,15.124-19.926,29.447-19.926v4.28C508.11,399.655,508.302,406.098,504.399,412.968z"
	/>
<g>
	<path style="fill:#F9A51B;" d="M586.477,480.055c-37.793,26.976-90.436,41.545-136.88,41.545
		c-65.057,0-123.044-23.549-167.721-63.893c-4.132-3.732-1.464-8.109,3.674-5.156c48.602,28.107,106.849,44.551,167.965,44.551
		c41.215,0,84.992-8.207,126.593-25.905C589.204,467.32,592.974,475.412,586.477,480.055z"/>
	<path style="fill:#F9A51B;" d="M602.626,461.848c-4.78-6.106-31.47-2.887-43.461-1.471c-3.609,0.443-4.197-2.732-0.907-5.027
		c21.288-14.881,56.185-10.549,60.22-5.637c4.081,5.053-1.078,40.066-21.022,56.779c-3.075,2.588-5.962,1.184-4.608-2.203
		C597.324,493.061,607.382,467.932,602.626,461.848z"/>
</g>
<path style="fill:#FFFFFF;" d="M852.636,423.922c2.231,0,4.129,0.785,5.694,2.355c1.563,1.556,2.352,3.448,2.352,5.663
	c0,2.229-0.787,4.124-2.352,5.69c-1.56,1.571-3.455,2.358-5.694,2.358c-2.233,0-4.129-0.787-5.689-2.358
	c-1.555-1.566-2.335-3.463-2.335-5.69c0-2.215,0.78-4.107,2.352-5.663C848.529,424.707,850.426,423.922,852.636,423.922z
	 M861.942,431.921c0-2.564-0.913-4.749-2.725-6.553c-1.814-1.806-4.019-2.709-6.59-2.709c-2.559,0-4.738,0.903-6.555,2.709
	c-1.811,1.813-2.723,3.995-2.723,6.553c0,2.579,0.9,4.778,2.7,6.59c1.805,1.827,4.004,2.74,6.575,2.74
	c2.572,0,4.775-0.913,6.591-2.74C861.029,436.696,861.942,434.498,861.942,431.921z M855.098,429.914
	c0,0.766-0.353,1.287-1.062,1.567c-0.395,0.154-0.972,0.222-1.74,0.222h-1.647v-3.637h1.552c1.018,0,1.748,0.116,2.214,0.368
	C854.868,428.688,855.098,429.174,855.098,429.914z M848.892,426.802v10.172h1.756v-4.009h1.438c0.972,0,1.65,0.113,2.032,0.324
	c0.657,0.388,0.979,1.156,0.979,2.336v0.806l0.039,0.325c0.008,0.045,0.016,0.08,0.022,0.115c0.016,0.029,0.022,0.069,0.03,0.103
	h1.67l-0.065-0.13c-0.05-0.088-0.078-0.258-0.094-0.526c-0.021-0.271-0.021-0.521-0.021-0.759v-0.739
	c0-0.514-0.193-1.042-0.555-1.585c-0.373-0.536-0.95-0.868-1.749-0.991c0.629-0.1,1.119-0.262,1.475-0.492
	c0.673-0.436,1.01-1.104,1.01-2.009c0-1.276-0.536-2.134-1.593-2.576c-0.593-0.241-1.524-0.363-2.794-0.363L848.892,426.802
	L848.892,426.802z"/>
</svg>
